<svg id="microphone" xmlns="http://www.w3.org/2000/svg" width="45.419" height="66.707" viewBox="0 0 45.419 66.707">
  <path id="Path_692" data-name="Path 692" d="M189.641,0A9.957,9.957,0,0,0,179.7,9.945V26.97c.544,13.189,19.344,13.194,19.891,0V9.945A9.957,9.957,0,0,0,189.641,0Zm0,34.048a7.091,7.091,0,0,1-6.933-5.646h2.677a1.433,1.433,0,1,0,0-2.866h-2.823V19.891h2.823a1.433,1.433,0,1,0,0-2.866h-2.823V11.379h2.823a1.433,1.433,0,1,0,0-2.866h-2.677a7.087,7.087,0,0,1,13.866,0H193.9a1.433,1.433,0,0,0,0,2.866h2.823v5.646H193.9a1.433,1.433,0,1,0,0,2.866h2.823v5.646H193.9a1.433,1.433,0,1,0,0,2.866h2.677A7.091,7.091,0,0,1,189.641,34.048Z" transform="translate(-166.928)" fill="#2c6f5b"/>
  <path id="Path_693" data-name="Path 693" d="M125.69,134.922h-2.858V132.1a1.433,1.433,0,1,0-2.866,0v2.823h-7.008a1.433,1.433,0,0,0,0,2.866h7.008v2.823a15.556,15.556,0,1,1-31.111,0v-2.823H95.9a1.433,1.433,0,1,0,0-2.866H88.854V132.1a1.433,1.433,0,0,0-2.866,0v2.823H83.129a1.433,1.433,0,1,0,0,2.866h2.858v2.823A18.454,18.454,0,0,0,98.72,158.133v10.837H95.862a5.66,5.66,0,0,0-5.654,5.654v4.291a1.433,1.433,0,0,0,1.433,1.433h25.536a1.433,1.433,0,0,0,1.433-1.433v-4.291a5.66,5.66,0,0,0-5.654-5.654H110.1V158.133a18.454,18.454,0,0,0,12.733-17.522v-2.823h2.858A1.433,1.433,0,0,0,125.69,134.922Zm-9.945,39.7v2.858H93.074v-2.858a2.791,2.791,0,0,1,2.788-2.788h17.095A2.791,2.791,0,0,1,115.744,174.625Zm-8.512-5.654h-5.646V158.817a18.6,18.6,0,0,0,5.646,0Z" transform="translate(-81.696 -113.642)" fill="#115362"/>
</svg>
