<svg xmlns="http://www.w3.org/2000/svg" width="88.112" height="101" viewBox="0 0 88.112 101">
  <path id="Union_4" data-name="Union 4" d="M5980.736,2855v-15.818l-6.151-15.388a27.6,27.6,0,0,1-7.9-8.44l-1.744-2.9-4.506-4.505a7.728,7.728,0,0,1-2.279-5.506,3.9,3.9,0,0,1,6.649-2.744l3.4,3.4,9.546-4.092a5.53,5.53,0,0,1,7.125,2.609l1.142,2.283,2.916-2.916c-.135-.338-.255-.684-.417-1a12.789,12.789,0,0,0-7.723-6.5l-9.275-2.78-.067.068a21.08,21.08,0,0,1-29.814,0l-.066-.068-9.275,2.783a12.783,12.783,0,0,0-7.724,6.5c-.163.322-.284.667-.416,1.005l2.915,2.915,1.141-2.285a5.535,5.535,0,0,1,7.126-2.619l9.546,4.092,3.4-3.4a3.894,3.894,0,0,1,6.646,2.754,7.738,7.738,0,0,1-2.278,5.511l-4.5,4.5-1.744,2.9a27.618,27.618,0,0,1-7.9,8.439l-6.151,15.384V2855h-3.229v-9.2a8.332,8.332,0,0,1-14.516-5.6v-14.236a1.612,1.612,0,0,1-1.522-2.121l5.322-15.992-2.662-2.66a3.9,3.9,0,0,1,2.754-6.647,7.786,7.786,0,0,1,2.944.582c.086-.193.154-.4.248-.592a16.008,16.008,0,0,1,9.678-8.147l10.2-3.065a1.61,1.61,0,0,1,1.6.4l.251.254,3.582-1.79.85-5.939c-.161-.174-.333-.336-.485-.519a23.085,23.085,0,0,1-4.5-8.606h-.845a6.452,6.452,0,1,1,0-12.9V2755h3.226v9.983a19.855,19.855,0,0,0,4.6,12.686,8.718,8.718,0,0,0,13.387,0,19.864,19.864,0,0,0,4.594-12.686V2755h3.224v3.225a6.452,6.452,0,1,1,0,12.9h-.845a23.039,23.039,0,0,1-4.487,8.6c-.16.183-.322.347-.483.519l.848,5.942,3.582,1.79.253-.256a1.614,1.614,0,0,1,1.6-.4l10.2,3.065a16.012,16.012,0,0,1,9.678,8.145c.094.191.16.4.247.6a7.758,7.758,0,0,1,2.938-.577,3.9,3.9,0,0,1,2.76,6.647l-2.659,2.66,5.322,15.992a1.612,1.612,0,0,1-1.53,2.121v14.244a8.333,8.333,0,0,1-14.516,5.6V2855Zm-62.9-14.8a5.119,5.119,0,0,0,9.875,1.9l7.983-19.961a1.6,1.6,0,0,1,.6-.744,24.431,24.431,0,0,0,7.343-7.7l1.843-3.077a1.562,1.562,0,0,1,.244-.312l4.642-4.643a4.547,4.547,0,0,0,1.335-3.227.692.692,0,0,0-1.137-.471l-4.094,4.089-4.768,6.36-2.58-1.934,3.606-4.812-1.22-.524-3.034,4.045-2.579-1.937,2.56-3.413-1.527-.657-3.292,4.394-2.579-1.938,2.8-3.722a2.331,2.331,0,0,0-2.761,1.128l-2.142,4.285a1.616,1.616,0,0,1-2.585.418l-4.642-4.642a4.524,4.524,0,0,0-3.228-1.336.668.668,0,0,0-.471,1.142l4.178,4.169a1.564,1.564,0,0,1,.3.418l1.179,2.365a26.5,26.5,0,0,0,4.963,6.888,1.613,1.613,0,0,1,.242,1.971l-.608,1.012a45.889,45.889,0,0,0-5.645,14.6l-3.161-.63a49.38,49.38,0,0,1,2.232-7.744h-3.878Zm43.972-38.347a.7.7,0,0,0-.428.585,4.552,4.552,0,0,0,1.335,3.227l4.646,4.643a1.724,1.724,0,0,1,.241.312l1.845,3.077a24.436,24.436,0,0,0,7.347,7.7,1.588,1.588,0,0,1,.6.744l7.983,19.961a5.12,5.12,0,0,0,9.874-1.9v-14.236h-3.884a49.035,49.035,0,0,1,2.239,7.749l-3.161.633a45.844,45.844,0,0,0-5.646-14.6l-.607-1.015a1.612,1.612,0,0,1,.241-1.971,26.476,26.476,0,0,0,4.964-6.889l1.184-2.369a1.561,1.561,0,0,1,.3-.418l4.171-4.171a.67.67,0,0,0-.477-1.142,4.531,4.531,0,0,0-3.226,1.333l-4.644,4.645a1.614,1.614,0,0,1-2.582-.42l-2.14-4.285a2.339,2.339,0,0,0-2.76-1.128l2.8,3.727-2.579,1.938-3.293-4.394-1.527.657,2.562,3.413-2.582,1.937-3.03-4.045-1.224.524,3.609,4.812-2.581,1.934-4.772-6.36-4.091-4.089a.7.7,0,0,0-.45-.166A.687.687,0,0,0,5961.8,2801.856Zm30.477,9.461a29.668,29.668,0,0,1-4.689,6.814,49.165,49.165,0,0,1,2.4,4.611h6.244l-3.863-11.6Zm-75.437,11.425h6.246a48.392,48.392,0,0,1,2.405-4.611,29.7,29.7,0,0,1-4.694-6.814l-.09-.179Zm33.231-35.255a1.618,1.618,0,0,1-.876,1.215l-3.153,1.575a17.764,17.764,0,0,0,20.992,0l-3.15-1.575a1.612,1.612,0,0,1-.878-1.215l-.707-4.951a11.835,11.835,0,0,1-11.519,0Zm20.982-22.5a22.84,22.84,0,0,1-.207,2.92h.207a3.226,3.226,0,1,0,0-6.451Zm-32.258-.306a3.227,3.227,0,0,0,3.226,3.227h.207a23.2,23.2,0,0,1-.207-2.92v-3.531A3.227,3.227,0,0,0,5938.8,2764.677Zm16.4,79.927-6.452-9.676a1.612,1.612,0,0,1,1.34-2.51h1.613v-9.677h-1.613a1.612,1.612,0,0,1-1.34-2.51l6.452-9.676a1.675,1.675,0,0,1,2.683,0l6.452,9.676a1.614,1.614,0,0,1-1.343,2.51h-1.612v9.677h1.612a1.615,1.615,0,0,1,1.343,2.51l-6.452,9.676a1.61,1.61,0,0,1-2.683,0Zm1.339-3.8,3.44-5.162h-.212a1.613,1.613,0,0,1-1.613-1.614v-12.9a1.613,1.613,0,0,1,1.613-1.614h.212l-3.44-5.162-3.436,5.162h.211a1.613,1.613,0,0,1,1.613,1.614v12.9a1.613,1.613,0,0,1-1.613,1.614h-.211Zm-6.451-71.291h3.227a3.226,3.226,0,0,0,6.452,0h3.225a6.451,6.451,0,0,1-12.9,0Z" transform="translate(-5912.487 -2754.5)" fill="#0e4b64" stroke="#fff" stroke-width="1"/>
</svg>
