<svg xmlns="http://www.w3.org/2000/svg" width="40.04" height="31.808" viewBox="0 0 40.04 31.808">
  <path id="Path_72" data-name="Path 72" d="M20.032,37.95a1.818,1.818,0,0,1-2.979,1.4l-9.94-8.237H1.818A1.818,1.818,0,0,1,0,29.294V22.05a1.819,1.819,0,0,1,1.818-1.819H7.113l9.94-8.237a1.819,1.819,0,0,1,2.979,1.4V37.95Zm6.988-2.841c-.044,0-.087,0-.131,0a1.816,1.816,0,0,1-1.285-.532l-.243-.244a1.817,1.817,0,0,1-.176-2.369,10.573,10.573,0,0,0-.28-12.956,1.817,1.817,0,0,1,.125-2.432l.243-.243a1.779,1.779,0,0,1,1.377-.53,1.821,1.821,0,0,1,1.317.665,14.562,14.562,0,0,1,.379,17.912A1.819,1.819,0,0,1,27.02,35.109Zm7.518,5.619a1.82,1.82,0,0,1-1.313.643l-.076,0a1.817,1.817,0,0,1-1.286-.532l-.239-.239a1.819,1.819,0,0,1-.106-2.456A19.377,19.377,0,0,0,31.2,12.828a1.819,1.819,0,0,1,.073-2.489l.238-.239a1.77,1.77,0,0,1,1.341-.535,1.818,1.818,0,0,1,1.307.61,23.347,23.347,0,0,1,.383,30.552Z" transform="translate(0 -9.565)" fill="#fff"/>
</svg>
