<svg xmlns="http://www.w3.org/2000/svg" width="52.33" height="52.33" viewBox="0 0 52.33 52.33">
  <path id="Union_5" data-name="Union 5" d="M-3940.413,8028.936v0Zm13.973-5.8,3.118,3.119Zm-27.941,0-3.118,3.119Zm2.987-13.975a10.985,10.985,0,0,1,10.982-10.985,10.985,10.985,0,0,1,10.986,10.985,10.99,10.99,0,0,1-10.986,10.987A10.99,10.99,0,0,1-3951.395,8009.163Zm30.752,0h0Zm-43.936,0h0Zm41.256-17.089-3.118,3.117Zm-34.178,0,3.118,3.117Zm17.087-7.074v0Z" transform="translate(3966.578 -7983)" fill="none" stroke="#26685c" stroke-linecap="round" stroke-linejoin="round" stroke-width="4"/>
</svg>
