<svg xmlns="http://www.w3.org/2000/svg" width="100" height="92.384" viewBox="0 0 100 92.384">
  <path id="Union_3" data-name="Union 3" d="M5920.539,2847.384a1.556,1.556,0,0,1-1.167-2.6c5.779-6.375,5.534-18.8,5.154-23.848a5.51,5.51,0,0,0-2.414-4.179,16.917,16.917,0,0,1-7-10.337,79.975,79.975,0,0,1-2.089-19.344c.217-8.112,2.062-14.813,5.507-19.941,4.124-6.132,10.5-9.93,18.938-11.341,12.263-2.035,22.329-.136,29.952,5.643a30.725,30.725,0,0,1,6.946,7.407,38.881,38.881,0,0,1,3.933,7.624,37.263,37.263,0,0,1,2.2,8.465,1.61,1.61,0,0,1-.3,1.112l-3.337,4.368,7.786,11.748a2.433,2.433,0,0,1,.353,1.926,2.542,2.542,0,0,1-1.14,1.6l-4.476,2.822,1.979,4.124a1.856,1.856,0,0,1-1.166,2.6,36.139,36.139,0,0,0-5.562,2.089l3.961,2.523a1.953,1.953,0,0,1,.813,1.194,1.845,1.845,0,0,1-.271,1.411l-2.008,2.957a17.449,17.449,0,0,1,.6,5.019,4.866,4.866,0,0,1-1.465,3.473c-1.249,1.085-3.093,1.221-5.237.352l-1.247-.515c-2.333-.95-4.748-1.926-7.136-2.849l-4.937-1.926c-3.582,7.488-3.636,16.685-3.636,16.794a1.582,1.582,0,0,1-1.547,1.628Zm17.444-88.5c-7.569,1.248-13.24,4.612-16.848,9.984-6.918,10.229-5.426,25.693-2.958,36.871a13.742,13.742,0,0,0,5.7,8.411,8.614,8.614,0,0,1,3.771,6.539c.462,6,.434,16.387-3.988,23.577h27.348a46.436,46.436,0,0,1,3.771-16.36l-5.155-2.008a1.578,1.578,0,0,1-.9-.922l-2.441-6.512a1.562,1.562,0,1,1,2.93-1.085l2.2,5.86,12.345,4.8c2.415.923,4.829,1.927,7.19,2.876l1.248.515c.923.38,1.737.461,2.008.217.109-.108,1.031-1.084-.271-6.05a1.626,1.626,0,0,1,.216-1.275l1.655-2.442-5.154-3.283a1.614,1.614,0,0,1-.732-1.356,1.528,1.528,0,0,1,.787-1.329,40.76,40.76,0,0,1,7.216-3.147l-1.953-4.07a1.593,1.593,0,0,1,.569-2.008l5.155-3.228-7.841-11.829a2.12,2.12,0,0,1,.082-2.442l3.364-4.422a37.672,37.672,0,0,0-1.954-7.19,31.062,31.062,0,0,0-9.848-13.592c-5.068-3.91-11.413-5.854-18.936-5.855A52.142,52.142,0,0,0,5937.983,2758.883Zm65.033,78.245a1.547,1.547,0,0,1,.055-2.2,22,22,0,0,0-.055-31.879,1.554,1.554,0,0,1,2.143-2.252,25.139,25.139,0,0,1,5.725,8.14,24.659,24.659,0,0,1,2.117,10.093,24.942,24.942,0,0,1-7.787,18.177,1.522,1.522,0,0,1-1.058.407A1.605,1.605,0,0,1,6003.016,2837.128Zm-5.562-5.534a1.548,1.548,0,0,1,.082-2.2,14.12,14.12,0,0,0-.054-20.728,1.555,1.555,0,1,1,2.116-2.279,17.242,17.242,0,0,1,5.534,12.67,16.723,16.723,0,0,1-1.491,7,16.916,16.916,0,0,1-4.016,5.616,1.457,1.457,0,0,1-1.031.407A1.563,1.563,0,0,1,5997.454,2831.594Zm-5.589-5.615a1.554,1.554,0,0,1,.163-2.2,6.283,6.283,0,0,0-.027-9.523,1.558,1.558,0,0,1,2.035-2.36,9.4,9.4,0,0,1,.054,14.271,1.889,1.889,0,0,1-1.031.353A1.637,1.637,0,0,1,5991.865,2825.978Z" transform="translate(-5913 -2755)" fill="#0e4b64"/>
</svg>
